<svg width="32" height="31" viewBox="0 0 32 31" fill="none" xmlns="http://www.w3.org/2000/svg">
<path d="M16 0C24.84 0 32 7.08796 32 15.839C31.9991 19.1577 30.947 22.3926 28.9917 25.0883C27.0363 27.784 24.2763 29.8048 21.1 30.8663C20.3 31.0247 20 30.5297 20 30.1139C20 29.5794 20.02 27.8767 20.02 25.7582C20.02 24.2733 19.52 23.323 18.94 22.828C22.5 22.432 26.24 21.0857 26.24 15.0075C26.24 13.2652 25.62 11.8595 24.6 10.7507C24.76 10.3548 25.32 8.73126 24.44 6.5534C24.44 6.5534 23.1 6.11782 20.04 8.1769C18.76 7.82052 17.4 7.64233 16.04 7.64233C14.68 7.64233 13.32 7.82052 12.04 8.1769C8.98 6.13762 7.64 6.5534 7.64 6.5534C6.76 8.73126 7.32 10.3548 7.48 10.7507C6.46 11.8595 5.84 13.285 5.84 15.0075C5.84 21.0659 9.56 22.432 13.12 22.828C12.66 23.224 12.24 23.9169 12.1 24.9465C11.18 25.3622 8.88 26.0354 7.44 23.6397C7.14 23.1646 6.24 21.9964 4.98 22.0162C3.64 22.036 4.44 22.7686 5 23.0656C5.68 23.4418 6.46 24.8475 6.64 25.3028C6.96 26.1938 8 27.8965 12.02 27.1639C12.02 28.4904 12.04 29.7378 12.04 30.1139C12.04 30.5297 11.74 31.0049 10.94 30.8663C7.75328 29.8162 4.98147 27.7995 3.01778 25.1022C1.05409 22.4048 -0.00176096 19.1639 2.20462e-06 15.839C2.20462e-06 7.08796 7.16 0 16 0Z" fill="#000"/>
</svg>
