<svg width="32" height="32" viewBox="0 0 32 32" fill="none" xmlns="http://www.w3.org/2000/svg">
<path d="M29.6 0H2.4C1.76348 0 1.15303 0.24995 0.702944 0.694864C0.252856 1.13978 0 1.74321 0 2.37241V29.2598C0 29.889 0.252856 30.4924 0.702944 30.9373C1.15303 31.3822 1.76348 31.6322 2.4 31.6322H29.6C30.2365 31.6322 30.847 31.3822 31.2971 30.9373C31.7471 30.4924 32 29.889 32 29.2598V2.37241C32 1.74321 31.7471 1.13978 31.2971 0.694864C30.847 0.24995 30.2365 0 29.6 0ZM9.6 26.8874H4.8V12.6529H9.6V26.8874ZM7.2 9.88506C6.64989 9.86951 6.11662 9.69407 5.6668 9.38064C5.21699 9.06722 4.87058 8.62971 4.67087 8.12279C4.47116 7.61587 4.427 7.06201 4.5439 6.53042C4.66081 5.99883 4.9336 5.51308 5.32818 5.13386C5.72277 4.75465 6.22165 4.49878 6.7625 4.39824C7.30336 4.29769 7.86219 4.35693 8.36918 4.56854C8.87617 4.78016 9.30883 5.13477 9.6131 5.58806C9.91738 6.04136 10.0798 6.57323 10.08 7.11724C10.0674 7.86115 9.75734 8.56987 9.21768 9.0885C8.67802 9.60714 7.95262 9.89352 7.2 9.88506ZM27.2 26.8874H22.4V19.3905C22.4 17.1446 21.44 16.338 20.192 16.338C19.8261 16.3621 19.4686 16.4574 19.1401 16.6185C18.8115 16.7795 18.5184 17.0031 18.2776 17.2765C18.0367 17.5498 17.8529 17.8675 17.7366 18.2113C17.6203 18.5551 17.5739 18.9182 17.6 19.2798C17.5921 19.3534 17.5921 19.4276 17.6 19.5012V26.8874H12.8V12.6529H17.44V14.709C17.908 14.0051 18.5511 13.4319 19.3075 13.0442C20.0639 12.6565 20.9084 12.4673 21.76 12.4947C24.24 12.4947 27.136 13.8549 27.136 18.2834L27.2 26.8874Z" fill="#000"/>
</svg>
